#!OML:ASF E:/inclinewalkrobotboard/Project1/Captureday1/Session1/subject1.ASF
:FULLY-SPECIFIED
:DEGREES
151
root 0 0 0 1.2576519335492597 -3.5911861641222504 1.8995515019897935
lowerback 12.042963815885493 0.8481603166251246 -0.10757677307189106
upperback -4.409418703846311 1.0652192107726357 -0.6023721150964555
thorax -11.57301592120469 0.48718625340797045 -0.8027394554410716
lowerneck -5.9621594243103875 1.7281773709506363 4.699926954423722
upperneck 18.3937387015804 3.286945042083935 -8.468622227525787
head 6.731605902641083 1.212661155881197 -3.2529310766190154
rclavicle -3.8674648105755784E-16 -2.0995628598831295E-15
rhumerus 20.787402048529522 14.829753695432155 -47.29462379180528
rradius 72.87558216250156
rwrist 27.418516687891156
rhand -34.559330105025666 -57.65182823351495
rfingers 7.12502000000002
rthumb -7.752681013876291 -87.60701472782415
lclavicle -2.236373284701072E-15 4.30122639460754E-16
lhumerus 21.890750126841716 -13.061190304472834 44.45246047943848
lradius 70.74027175805507
lwrist -22.500477385868145
lhand -45.095464999047174 -70.83703562555228
lfingers 7.125020000000016
lthumb -17.856935084686345 -41.89380060491574
rfemur -25.61469204994716 -2.375795265820754 16.878743091913208
rtibia 54.52894217336511
rfoot -31.33195164336046 -17.850052803898706
rtoes -19.01579577475426
lfemur -27.994628411339654 2.836548942952423 -18.347629199890598
ltibia 54.79735764842737
lfoot -33.210447603957235 -3.5362483669368348
ltoes -20.639146942762324
152
root 0 0 0 1.2581907658666238 -3.5916712170092855 1.8997679626361688
lowerback 12.042906089071593 0.8482634112787637 -0.1076708721977182
upperback -4.409474847679904 1.0653030900837532 -0.6024607759175461
thorax -11.573037155927342 0.4872424737900235 -0.8027444444142526
lowerneck -5.961946921824829 1.7282882478095531 4.699911359494948
upperneck 18.393728473413308 3.2871150296352623 -8.468643819634936
head 6.73155599638765 1.2127446992716249 -3.2529046735611615
rclavicle -3.7657074982297575E-16 -2.1118521527950263E-15
rhumerus 20.789827945990446 14.833597199247274 -47.29488895556631
rradius 72.87517514793308
rwrist 27.418018897441556
rhand -34.55805636992793 -57.65181172907561
rfingers 7.12502000000002
rthumb -7.751579712170107 -87.60808885036826
lclavicle -2.200947427990601E-15 4.176064189883179E-16
lhumerus 21.889848834740555 -13.057967450744117 44.45107941727434
lradius 70.73838947994544
lwrist -22.50272323903595
lhand -45.095780785971925 -70.84173763527852
lfingers 7.125020000000016
lthumb -17.85740677949275 -41.89855995191584
rfemur -25.616606180329562 -2.3710532666729316 16.876542784877262
rtibia 54.52146436606244
rfoot -31.33698190690852 -17.853730509039323
rtoes -19.029838574012622
lfemur -27.991116535386162 2.833658374828383 -18.344097382269446
ltibia 54.78976295451671
lfoot -33.21759980863034 -3.5332714106316754
ltoes -20.65090119676934
153
root 0 0 0 1.2582381925518527 -3.5918455346214007 1.899652516216054
lowerback 12.042867343575502 0.8482883438179796 -0.10761909042435258
upperback -4.409500024729426 1.065342600164705 -0.6024385582994082
thorax -11.573039713535762 0.4872615797598322 -0.8027596340988481
lowerneck -5.961892643865206 1.728317086690421 4.699912584691503
upperneck 18.39374024104946 3.287156094304147 -8.468676474876567
head 6.731548383919642 1.2127588860059277 -3.2529104698023987
rclavicle -3.7662208449554713E-16 -2.1120943448980137E-15
rhumerus 20.789738044713495 14.833349431912557 -47.29465143704928
rradius 72.87520878948813
rwrist 27.41823333681267
rhand -34.558116282672714 -57.651945018464076
rfingers 7.12502000000002
rthumb -7.751616566502689 -87.60827653199043
lclavicle -2.20255888893527E-15 4.1930928795396237E-16
lhumerus 21.890135896228784 -13.058182739645957 44.450900064463255
lradius 70.7386922067426
lwrist -22.502772408374994
lhand -45.095904139225055 -70.84223203213233
lfingers 7.125020000000016
lthumb -17.857509715500807 -41.89916178091039
rfemur -25.615361758429227 -2.371055386007293 16.876874225467127
rtibia 54.520641420337526
rfoot -31.338430844518324 -17.852943578951532
rtoes -19.033942372225614
lfemur -27.98923285477498 2.8321125172389916 -18.3420495402304
ltibia 54.78512382827526
lfoot -33.21835363358749 -3.5324273015491343
ltoes -20.65731633713485
154
root 0 0 0 1.258182855331802 -3.591813043496601 1.899609574484745
lowerback 12.04279365448305 0.8483005754426316 -0.10760738203277909
upperback -4.409497635582971 1.0653583490276657 -0.6024244344304203
thorax -11.572996509754208 0.48726951852010425 -0.8027516448535561
lowerneck -5.961835799491792 1.728351723165224 4.699973478974816
upperneck 18.39380167667423 3.2872084530409325 -8.468764188006364
head 6.731557173454432 1.2127783815529756 -3.252940709685416
rclavicle -3.777944506083795E-16 -2.112478443750057E-15
rhumerus 20.789202149407267 14.832603324558802 -47.29413640727104
rradius 72.87480647739149
rwrist 27.418792820660705
rhand -34.55815249031634 -57.65215515440204
rfingers 7.12502000000002
rthumb -7.75165972808635 -87.60841738215323
lclavicle -2.203093300414705E-15 4.191212001640849E-16
lhumerus 21.890046528032507 -13.057905859561217 44.45077369341032
lradius 70.7385653719491
lwrist -22.502934900908194
lhand -45.09592648856402 -70.84257967104233
lfingers 7.125020000000016
lthumb -17.857534321630975 -41.89953648695074
rfemur -25.613842977483927 -2.371274618316872 16.87672598613917
rtibia 54.52160243989986
rfoot -31.33728979563601 -17.851630962206535
rtoes -19.036089386153503
lfemur -27.987403303150465 2.8319857428600517 -18.34219401985395
ltibia 54.78548689574913
lfoot -33.21663013831411 -3.5342022091297136
ltoes -20.65907811162245
